<svg xmlns="http://www.w3.org/2000/svg" width="223" height="40.169" viewBox="0 0 223 40.169"><defs><style>.a{fill:#fff;}.b{fill:#114495;}.c{fill:#fdcd00;}</style></defs><g transform="translate(0.005)"><path class="a" d="M222.89,13.41,215.188.451a1.043,1.043,0,0,0-.8-.451H10.922A7.81,7.81,0,0,0,3.59,5.849L.124,21.907a4.679,4.679,0,0,0,4.823,5.858H204.454a.549.549,0,0,0,.105,0h6.928a1.246,1.246,0,0,0,.861-.41l10.492-13.081a.82.82,0,0,0,.051-.864Z" transform="translate(0 0)"/><path class="b" d="M605.9,0c-.306,0-.429.216-.276.479l8.062,13.778a.875.875,0,0,1-.067.912L602.5,29.094c-.19.24-.1.436.21.436h7.23a1.291,1.291,0,0,0,.9-.436l10.94-13.918a.885.885,0,0,0,.063-.918L613.806.479A1.071,1.071,0,0,0,612.971,0Z" transform="translate(-411.713 0)"/><path class="b" d="M644.214,0c-.306,0-.429.216-.276.479L652,14.257a.875.875,0,0,1-.067.912L640.8,29.094c-.19.24-.1.436.21.436h7.23a1.291,1.291,0,0,0,.9-.436L660.1,15.176a.885.885,0,0,0,.063-.918L652.116.479A1.085,1.085,0,0,0,651.281,0Z" transform="translate(-437.269)"/><path class="b" d="M197.363,14.257,189.68.479a1.012,1.012,0,0,0-.8-.479H10.863A7.9,7.9,0,0,0,3.57,6.219L.124,23.291c-.688,3.43,1.459,6.229,4.8,6.229h180.96a1.222,1.222,0,0,0,.859-.436L197.3,15.172a.918.918,0,0,0,.063-.915Z" transform="translate(0 0)"/><path class="c" d="M269.751,12.06a22.179,22.179,0,0,0-9.017,1.484l-1.278,6.322h-4.815a19.8,19.8,0,0,0-.932,2.995c-2.216,10.444,6.655,10.78,11.466,10.78S279,33.308,281.22,22.86,274.572,12.06,269.751,12.06Zm3.011,10.78c-.868,4.093-3.267,5.7-6.508,5.7s-4.958-1.61-4.089-5.7,3.267-5.7,6.508-5.7,4.958,1.607,4.089,5.7Z" transform="translate(-173.079 -8.047)"/><path class="a" d="M353.61,14.18H333.693a4.745,4.745,0,0,1,2.5,4.741h13.086c2,0,2.632.622,2.306,2.146-.309,1.467-1.2,2.086-3.2,2.086H335.307c-.612,2.878-1.331,6.185-1.331,6.185a8,8,0,0,1-4.236,4.991h11.123l1.331-6.265h8.511c5.636,0,8.3-2.995,9.123-6.858C360.794,16.719,359.246,14.18,353.61,14.18Z" transform="translate(-225.311 -9.462)"/><path class="a" d="M444.917,14.915c-1-.539-2.329-.735-4.608-.735H420.914a4.618,4.618,0,0,1,1.783,4.093l-.136.649H435.5c2,0,2.629.622,2.306,2.146-.313,1.467-1.2,2.086-3.2,2.086H421.662L419.29,34.33h7.949l1.331-6.209h5.636c1.467,0,1.783.905,1.551,2.4-.359,2.329-.542,3.217-.386,3.81h8.681a3.77,3.77,0,0,1-.486-2.369l.582-4.4c.23-1.75-.512-2.768-1.624-3.1V24.4a5.812,5.812,0,0,0,4.076-4.6C447.083,17.594,446.254,15.647,444.917,14.915Z" transform="translate(-286.404 -9.462)"/><path class="a" d="M519.334,12.06c4.818,0,13.682.333,11.466,10.78s-11.223,10.78-16.044,10.78-13.682-.333-11.466-10.78S514.512,12.06,519.334,12.06Zm-3.5,16.483c3.244,0,5.656-1.61,6.512-5.7s-.848-5.7-4.079-5.7-5.656,1.607-6.508,5.7S512.609,28.543,515.833,28.543Z" transform="translate(-343.571 -8.047)"/><path class="c" d="M146.329,14.18H138.38l-2.585,12.191c-.552,2.6-2.219,3.417-4.815,3.417s-3.913-.819-3.361-3.417l2.589-12.191h-7.949l-2.662,12.5c-1.351,6.4,2.1,8.352,10.258,8.352s12.447-1.946,13.808-8.352l1.664-7.769h7.32L149.387,34.33h7.949l3.271-15.415h7.357l1-4.735Z" transform="translate(-81.729 -9.462)"/><path class="c" d="M41.825,11.92c5.966,0,9.41.822,10.834,2.582.918,1.138,1.111,2.765.612,5.127L51.038,30.137a7.114,7.114,0,0,0-.12,2.7H42.74c.226-1.374.469-2.758.469-2.758l-1.74,1.351c-2.532,1.966-5.926,2.283-11,2.283-4.142,0-6.724-.705-7.9-2.153-.782-.965-.972-2.329-.582-4.162a6.322,6.322,0,0,1,2.958-4.239,15.971,15.971,0,0,1,7.862-2.479l8.481-.409c1.743-.1,3.417-.2,3.84-2.2a1.551,1.551,0,0,0-.406-1.537c-.729-.892-2.233-1.051-4.6-1.051-2,0-4.558-.273-5.876,1.927H26.186a7.734,7.734,0,0,1,4.359-4.039c2.386-1,5.863-1.447,11.273-1.447m-6.7,17.994c4.375,0,8.345-2.026,8.854-4.429l.2-.955.276-1.3-1.3.266c-1.584.333-4.159.552-7.423.838l-.7.063c-1.454.123-3.447.552-3.933,2.832-.236,1.115,0,1.377.356,1.8.665.822,1.97.875,3.66.875" transform="translate(-14.544 -7.954)"/><path class="b" d="M330.217,102.8h5.407c2.329,0,3.294,1.248,2.765,3.743a4.274,4.274,0,0,1-4.678,3.747H328.63Zm1.261,5.809h2.086a2.281,2.281,0,0,0,2.253-2.076c.3-1.394-.246-2.056-1.577-2.056h-1.883Z" transform="translate(-224.069 -70.35)"/><path class="b" d="M360.6,102.8H363.1l-1.587,7.49H359Z" transform="translate(-244.643 -70.35)"/><path class="b" d="M372.75,102.8h7.49l-.333,1.614h-4.991l-.286,1.354h4.682l-.333,1.554h-4.695L374,108.673h4.991l-.333,1.617h-7.5Z" transform="translate(-253.047 -70.35)"/><path class="b" d="M411.55,102.8h2.409l.1,5.054h.02L416.5,102.8h2.116l.276,5.054h.023l2.246-5.054h2.406l-3.83,7.49h-2.459l-.266-4.878H417l-2.329,4.878h-2.462Z" transform="translate(-280.663 -70.35)"/><path class="b" d="M446.784,102.8h7.49l-.333,1.614H448.95l-.286,1.354h4.682l-.333,1.554H448.3l-.286,1.351h4.991l-.333,1.617h-7.5Z" transform="translate(-303.511 -70.35)"/><path class="b" d="M472.457,102.8h5.989c1.833,0,2.329.838,2.063,2.086a2.09,2.09,0,0,1-1.557,1.71v.02c.439.16.725.536.619,1.331-.2,1.477-.26,1.95-.023,2.329h-2.735a3.035,3.035,0,0,1,.1-1.088c.25-1.178-.093-1.387-.722-1.387H473.9l-.529,2.5h-2.5Zm1.79,3.327h2.4a1.025,1.025,0,0,0,1.1-.829c.106-.492-.153-.809-.759-.809H474.58Z" transform="translate(-321.051 -70.35)"/><path class="b" d="M501.587,102.8h2.492l-.622,2.938L507.2,102.8h3.327l-3.993,2.948,2.682,4.542h-3.327l-1.664-2.995-1.288.9-.446,2.11H500Z" transform="translate(-340.932 -70.35)"/><path class="b" d="M535.316,104.546c.037-.516-.3-.872-1.437-.872-.838,0-1.351.243-1.457.735-.053.253.093.4.459.462.606.1,2.462.386,3.168.512,1.331.243,2.06.809,1.78,2.129-.542,2.539-3.83,2.559-4.868,2.559-2.535,0-4.272-.453-3.976-2.539h2.978c-.057.566.18.925,1.481.925.625,0,1.331-.15,1.474-.789.086-.4-.2-.536-1.042-.665l-2.412-.376c-1.491-.23-1.923-1-1.687-2.119.21-1,1.111-2.379,4.392-2.379,2.712,0,4.209.665,3.993,2.422Z" transform="translate(-360.628 -69.903)"/><path class="b" d="M558.919,102.8H566.9l-.353,1.664h-2.745l-1.234,5.813h-2.492l1.234-5.813H558.57Z" transform="translate(-380.789 -70.35)"/><path class="b" d="M581.058,102.8h3.048l1.627,7.49h-2.662l-.193-1.218H579.61l-.709,1.218H576.24Zm1.118,1.887h-.027l-1.63,2.838h2.1Z" transform="translate(-394.254 -70.35)"/><path class="b" d="M606.209,102.8h7.985l-.353,1.664H611.1l-1.234,5.813h-2.492l1.234-5.813H605.86Z" transform="translate(-414.018 -70.35)"/><path class="b" d="M630.139,102.8h7.986l-.356,1.664h-2.742l-1.234,5.813H631.3l1.231-5.813H629.79Z" transform="translate(-429.986 -70.35)"/><path class="b" d="M650.153,119.07H652.5l-.439,2.076H649.73Z" transform="translate(-443.291 -81.207)"/></g></svg>