<svg xmlns="http://www.w3.org/2000/svg" width="222.87" height="71.352" viewBox="0 0 222.87 71.352"><defs><style>.a{fill:#db291a;}.b{fill:#111212;}.c{fill:#fff;}</style></defs><g transform="translate(-0.18)"><g transform="translate(0.18 3.758)"><path class="a" d="M220.79,82.384V51.61H.35V82.384Z" transform="translate(-0.216 -14.79)"/><path class="a" d="M9.151,27.58,7.358,32.156H.18L10.189,5.84h7.383l9.8,26.316H20.159l-1.69-4.576Zm4.717-13.61h-.063l-2.76,8.381h5.63l-2.8-8.381Z" transform="translate(-0.18 -5.007)"/><path class="a" d="M56.446,5.84v14.8c0,3.389-.142,6.738-2.728,9.286-2.178,2.162-5.59,2.925-8.649,2.925s-6.455-.786-8.649-2.925c-2.587-2.547-2.72-5.9-2.72-9.286V5.84h6.762V19.694c0,3.42.244,7.155,4.592,7.155s4.607-3.735,4.607-7.155V5.84Z" transform="translate(-7.345 -5.007)"/><path class="a" d="M77.872,32.156H71.11V11.635H65.52V5.84H83.462v5.795h-5.59Z" transform="translate(-14.147 -5.007)"/><path class="a" d="M115.055,18.319c0,8.515-6.038,14.522-14.388,14.522s-14.4-6.046-14.4-14.522c0-7.957,6.9-13.539,14.4-13.539s14.388,5.582,14.388,13.539Zm-21.74,0c0,4.537,3.31,7.862,7.351,7.862s7.351-3.31,7.351-7.862a7.363,7.363,0,0,0-14.7,0Z" transform="translate(-18.582 -4.78)"/></g><path class="b" d="M206.185,32.156h-8.421l-6.392-10.119h-.063V32.156h-6.77V5.84h10.119c5.142,0,9.042,2.477,9.042,8.1,0,3.625-2,6.77-5.7,7.43ZM191.31,17.634h.668c2.209,0,4.717-.417,4.717-3.279s-2.485-3.279-4.717-3.279h-.653v6.557Z" transform="translate(-39.407 -1.248)"/><path class="b" d="M220.28,11.635v4.4H227.9v5.795H220.28v4.537h8.035v5.795H213.51V5.84h14.805v5.795Z" transform="translate(-45.6 -1.248)"/><path class="b" d="M244.858,22.839h.071l5.457-17h5.378l5.111,17h.071l4.9-17h7.037l-8.318,26.316h-6.9L253.106,16.9h-.071l-5.1,15.253H241.06L233.3,5.84h7.037Z" transform="translate(-49.83 -1.248)"/><path class="b" d="M159.12,7.43a18.359,18.359,0,0,0-4.788-4.662S150.9,0,143.962,0C142.161,0,133.85.44,128,11.794a9.309,9.309,0,0,1-1.494,1.95L79.45,56.4H99.892c5.221-4.717,23.753-21.527,26.693-24.114a5.4,5.4,0,0,1,6.66-.786,22.93,22.93,0,0,0,11.2,3.459c6.345,0,11.951-4.655,13.877-8.94.48-1.054-.558-1.2-.558-1.2h-10.85a1.612,1.612,0,0,1-1.305-.786c-4.1-6.542-1.62-11.794.377-14.286a1.745,1.745,0,0,1,1.305-.566h11.212c1.2.071,1.061-1.109.613-1.753Z" transform="translate(-16.944)"/><path class="c" d="M161.222,26.558c-4.183-6.5-1.572-11.715.37-14.286.472-.629.558-1.289-.59-.283a9.718,9.718,0,0,0-3.452,7.524c0,5.315,3.145,7.485,3.145,7.485.841.5,1.282.715.535-.44Z" transform="translate(-33.638 -2.452)"/><path class="c" d="M161.462,7.658C159.1,5.3,156.855,1.8,147.837,1.8a13.468,13.468,0,0,0-6.416,1.918,15.442,15.442,0,0,0-6.038,7.493,21.78,21.78,0,0,0,.566,14.664,16.061,16.061,0,0,0,2.084,3.6c-.527-.3-1.211-.739-2.461-1.572-2.492-1.7-4.356-.786-5.975.566-1.352,1.109-24.374,21.606-31.906,28.3H102.5l28.022-25.309A6.156,6.156,0,0,1,137,30.742a29.325,29.325,0,0,0,4.324,2.233A24.923,24.923,0,0,0,145.038,34a15.528,15.528,0,0,0,3.632.393c6.785-.047,11.007-5.378,11.581-6.29s.189-1.1-.472-.283a14.711,14.711,0,0,1-11.141,5.04s-4.623.7-8.586-4.033c-3.145-3.711-5.5-14.679-.252-21.331.126-.157,3.334-4.505,8.649-4.717,7.147-.291,10.017,2.65,12.784,5.26.432.393.527-.079.228-.377Z" transform="translate(-20.843 -0.385)"/></g></svg>