<svg xmlns="http://www.w3.org/2000/svg" width="62.07" height="70.05" viewBox="0 0 62.07 70.05"><defs><style>.cls-1{fill:#87a6c1;}</style></defs><g id="Ebene_2" data-name="Ebene 2"><g id="logo_1" data-name="logo 1"><path class="cls-1" d="M57.21,51.38c.37-.51,1.06-1.67,1.06-1.67a28.35,28.35,0,0,0,3.79-14c0-.84,0-1.67-.08-2.49l-32.85-.11V43H53.34a19.82,19.82,0,0,1-18.23,12,20.11,20.11,0,0,1-4.06-.42l-.2,0-.41-.1A19.77,19.77,0,1,1,47,19.57H57.51A27.83,27.83,0,0,0,53,14.5l2.32-8.11L49,2.77,43,9a27.66,27.66,0,0,0-7.39-1.2L32.14,0,25,1.25l-.61,8.63a27.67,27.67,0,0,0-6.48,3.81L10.31,10,5.66,15.52l5,6.89a27.14,27.14,0,0,0-2.61,7.23l-8,2H0v7.23H0l8.05,2a27.37,27.37,0,0,0,2.73,7.45L6,54.88l4.64,5.54L18,56.87a27,27,0,0,0,7.07,4l.55,7.9,7.12,1.25L36,62.73A27.48,27.48,0,0,0,44,61.21l5.49,5.68,6.26-3.62-2.23-7.78a25.92,25.92,0,0,0,2.19-2.26S56.75,52.06,57.21,51.38Z"/></g></g></svg>