<svg xmlns="http://www.w3.org/2000/svg" width="158.83" height="111.38" viewBox="0 0 158.83 111.38"><defs><style>.cls-1{fill:#87a6c1;}.cls-2{fill:#2b3b5a;}</style></defs><g id="Ebene_2" data-name="Ebene 2"><g id="logo_1" data-name="logo 1"><path class="cls-1" d="M95.79,51.38c.37-.51,1.06-1.67,1.06-1.67a28.35,28.35,0,0,0,3.79-14c0-.84,0-1.67-.08-2.49l-32.85-.11V43H91.92a19.83,19.83,0,0,1-18.23,12,20.29,20.29,0,0,1-4.07-.42l-.19,0-.41-.1A19.77,19.77,0,1,1,85.54,19.57H96.08a27.42,27.42,0,0,0-4.55-5.07l2.32-8.11L87.59,2.77,81.58,9a27.66,27.66,0,0,0-7.39-1.2L70.71,0,63.6,1.25,63,9.88a27.67,27.67,0,0,0-6.48,3.81L48.89,10l-4.65,5.54,5,6.89a27.14,27.14,0,0,0-2.61,7.23l-8.05,2h0v7.23h0l8.05,2a27.37,27.37,0,0,0,2.73,7.45l-4.74,6.53,4.64,5.54,7.29-3.55a27.1,27.1,0,0,0,7.06,4l.56,7.9,7.12,1.25,3.27-7.32a27.55,27.55,0,0,0,8-1.52l5.49,5.68,6.26-3.62-2.23-7.78a25.92,25.92,0,0,0,2.19-2.26S95.33,52.06,95.79,51.38Z"/><path class="cls-2" d="M0,85.92H4.57L5,88.19h.09c1.48-1.48,3-2.71,5.45-2.71a4.92,4.92,0,0,1,4.92,3c1.54-1.58,3.21-3,5.61-3,3.91,0,5.61,2.8,5.61,7.27v11.1H21.05V93.45c0-2.49-.63-3.18-2.05-3.18a4.33,4.33,0,0,0-2.87,1.6v12H10.52V93.45c0-2.49-.66-3.18-2.08-3.18a4.22,4.22,0,0,0-2.83,1.6v12H0Z"/><path class="cls-2" d="M30.62,110.4l1-4.25a6.59,6.59,0,0,0,1.2.22,2.87,2.87,0,0,0,3-2.15l.26-.91L29.21,85.92h5.64l2.39,7.43c.54,1.64.91,3.31,1.39,5.08h.16c.34-1.7.75-3.37,1.16-5.08L42,85.92h5.36l-6.18,18c-1.73,4.6-3.69,6.87-7.94,6.87A8.72,8.72,0,0,1,30.62,110.4Z"/><path class="cls-1" d="M49.43,92.25C49.43,84.44,54.7,80,61,80A10.36,10.36,0,0,1,68.47,83l-3,3.59a6.07,6.07,0,0,0-4.34-1.83c-3.47,0-6,2.71-6,7.28s2.08,7.38,6.46,7.38a4.05,4.05,0,0,0,2.21-.6V95.06H60.15V90.45h8.73v11a11.59,11.59,0,0,1-7.82,2.87C54.57,104.29,49.43,100.19,49.43,92.25Z"/><path class="cls-1" d="M72.37,98.84c0-3.78,3-5.83,10-6.59-.13-1.45-.88-2.3-2.71-2.3a9.86,9.86,0,0,0-4.7,1.58l-2-3.69a14.86,14.86,0,0,1,7.72-2.36c4.63,0,7.25,2.58,7.25,8.19v10.18H83.37l-.38-1.8h-.16a7.67,7.67,0,0,1-5.13,2.24A5.18,5.18,0,0,1,72.37,98.84Zm10-.32V95.65c-3.5.44-4.63,1.48-4.63,2.74,0,1,.75,1.55,1.92,1.55A3.55,3.55,0,0,0,82.33,98.52Z"/><path class="cls-1" d="M92.25,85.92h4.57L97.23,89h.09c1.33-2.4,3.31-3.56,5.11-3.56a5.06,5.06,0,0,1,2.17.37l-.91,4.83a7.63,7.63,0,0,0-2-.29c-1.32,0-2.93.85-3.84,3.22v10.24H92.25Z"/><path class="cls-1" d="M105,98.84c0-3.78,3-5.83,10-6.59-.13-1.45-.88-2.3-2.71-2.3a9.86,9.86,0,0,0-4.7,1.58l-2-3.69a14.89,14.89,0,0,1,7.72-2.36c4.63,0,7.25,2.58,7.25,8.19v10.18H116l-.38-1.8h-.16a7.67,7.67,0,0,1-5.13,2.24A5.18,5.18,0,0,1,105,98.84Zm10-.32V95.65c-3.5.44-4.63,1.48-4.63,2.74,0,1,.75,1.55,1.92,1.55A3.55,3.55,0,0,0,115,98.52Z"/><path class="cls-1" d="M123.85,106.87a3.94,3.94,0,0,1,2.52-3.53v-.16a3.48,3.48,0,0,1-1.64-3.08,4.28,4.28,0,0,1,2-3.34v-.13A5.7,5.7,0,0,1,124.29,92c0-4.35,3.63-6.49,7.5-6.49a8.64,8.64,0,0,1,2.84.44h6.58V90h-2.74a5.26,5.26,0,0,1,.47,2.18c0,4.19-3.18,6-7.15,6a8,8,0,0,1-2.11-.31,1.5,1.5,0,0,0-.57,1.26c0,.82.73,1.2,2.65,1.2h2.84c4.41,0,6.93,1.35,6.93,4.6,0,3.78-3.94,6.46-10.18,6.46C127.22,111.38,123.85,110.08,123.85,106.87Zm12.29-1c0-1.07-.94-1.29-2.61-1.29h-1.71a9.49,9.49,0,0,1-2.55-.22,2.08,2.08,0,0,0-.82,1.61c0,1.26,1.51,1.89,3.78,1.89S136.14,107,136.14,105.89Zm-2-13.92c0-1.8-1-2.74-2.3-2.74s-2.27.94-2.27,2.74,1,2.83,2.27,2.83S134.09,93.86,134.09,92Z"/><path class="cls-1" d="M142.63,94.87c0-5.8,4.19-9.39,8.51-9.39,5.17,0,7.69,3.75,7.69,8.63a10.29,10.29,0,0,1-.26,2.43H148.05c.5,2.45,2.21,3.46,4.47,3.46a7.38,7.38,0,0,0,3.79-1.13l1.86,3.37a11.61,11.61,0,0,1-6.4,2.05C146.6,104.29,142.63,100.82,142.63,94.87Zm11.44-2c0-1.77-.79-3.09-2.84-3.09-1.54,0-2.9,1-3.27,3.09Z"/></g></g></svg>